HIERARCHY
ROOT hip
{
  OFFSET 5.51535 103.731 -2.80141
  CHANNELS 6 Xposition Yposition Zposition Zrotation Xrotation Yrotation
  JOINT abdomen
  {
    OFFSET 0 -1.186 -1.5018
    CHANNELS 6 Xposition Yposition Zposition Zrotation Xrotation Yrotation
    JOINT abdomen2
    {
      OFFSET 0 9.964 0.2134
      CHANNELS 6 Xposition Yposition Zposition Zrotation Xrotation Yrotation
      JOINT chest
      {
        OFFSET 0 13.134 -3.2573
        CHANNELS 6 Xposition Yposition Zposition Zrotation Xrotation Yrotation
        JOINT neck
        {
          OFFSET 0 20.686 -1.6905
          CHANNELS 6 Xposition Yposition Zposition Zrotation Xrotation Yrotation
          JOINT head
          {
            OFFSET 0 7.23801 -0.1237
            CHANNELS 6 Xposition Yposition Zposition Zrotation Xrotation Yrotation
            End Site
            {
              OFFSET 0 0 0
            }
          }
        }
        JOINT lCollar
        {
          OFFSET 1.7069 20.075 5.0056
          CHANNELS 6 Xposition Yposition Zposition Zrotation Xrotation Yrotation
          JOINT lShldr
          {
            OFFSET 13.6458 -0.0470195 -4.849
            CHANNELS 6 Xposition Yposition Zposition Zrotation Xrotation Yrotation
            JOINT lForeArm
            {
              OFFSET 28.3255 -0.97589 2.2888
              CHANNELS 6 Xposition Yposition Zposition Zrotation Xrotation Yrotation
              JOINT lHand
              {
                OFFSET 22.1583 -0.529998 10.8316
                CHANNELS 6 Xposition Yposition Zposition Zrotation Xrotation Yrotation
                JOINT lThumb1
                {
                  OFFSET 0.786 0.111997 2.5817
                  CHANNELS 6 Xposition Yposition Zposition Zrotation Xrotation Yrotation
                  JOINT lThumb2
                  {
                    OFFSET 0.360097 -0.877999 4.2331
                    CHANNELS 6 Xposition Yposition Zposition Zrotation Xrotation Yrotation
                    JOINT lThumb2_End
                    {
                      OFFSET 1.8127 -1.21601 2.2227
                      CHANNELS 6 Xposition Yposition Zposition Zrotation Xrotation Yrotation
                      End Site
                      {
                        OFFSET 0.0180981 -0.012195 0.0222007
                      }
                    }
                  }
                }
                JOINT lCarpal1
                {
                  OFFSET 0.9571 1.114 1.7695
                  CHANNELS 6 Xposition Yposition Zposition Zrotation Xrotation Yrotation
                  JOINT lIndex1
                  {
                    OFFSET 4.12461 0.486992 4.1451
                    CHANNELS 6 Xposition Yposition Zposition Zrotation Xrotation Yrotation
                    JOINT lIndex2
                    {
                      OFFSET 3.4052 -1.45401 2.7682
                      CHANNELS 6 Xposition Yposition Zposition Zrotation Xrotation Yrotation
                      JOINT lIndex2_End
                      {
                        OFFSET 1.45309 -1.79499 1.2713
                        CHANNELS 6 Xposition Yposition Zposition Zrotation Xrotation Yrotation
                        End Site
                        {
                          OFFSET 0.0144979 -0.0179083 0.0126995
                        }
                      }
                    }
                  }
                  JOINT lMid1
                  {
                    OFFSET 5.6954 0.209987 2.1184
                    CHANNELS 6 Xposition Yposition Zposition Zrotation Xrotation Yrotation
                    JOINT lMid2
                    {
                      OFFSET 3.9766 -1.53999 2.3863
                      CHANNELS 6 Xposition Yposition Zposition Zrotation Xrotation Yrotation
                      JOINT lMid2_End
                      {
                        OFFSET 1.4042 -1.926 1.125
                        CHANNELS 6 Xposition Yposition Zposition Zrotation Xrotation Yrotation
                        End Site
                        {
                          OFFSET 0.013999 -0.0193044 0.011301
                        }
                      }
                    }
                  }
                }
                JOINT lCarpal2
                {
                  OFFSET 2.0956 0.66 -0.3894
                  CHANNELS 6 Xposition Yposition Zposition Zrotation Xrotation Yrotation
                  JOINT lRing1
                  {
                    OFFSET 5.0395 -0.090013 2.4971
                    CHANNELS 6 Xposition Yposition Zposition Zrotation Xrotation Yrotation
                    JOINT lRing2
                    {
                      OFFSET 3.7921 -1.55199 1.4806
                      CHANNELS 6 Xposition Yposition Zposition Zrotation Xrotation Yrotation
                      JOINT lRing2_End
                      {
                        OFFSET 1.4655 -1.808 0.9609
                        CHANNELS 6 Xposition Yposition Zposition Zrotation Xrotation Yrotation
                        End Site
                        {
                          OFFSET 0.0147015 -0.0181014 0.00959957
                        }
                      }
                    }
                  }
                  JOINT lPinky1
                  {
                    OFFSET 4.9141 -1.269 0.3591
                    CHANNELS 6 Xposition Yposition Zposition Zrotation Xrotation Yrotation
                    JOINT lPinky2
                    {
                      OFFSET 3.1477 -1.685 0.8462
                      CHANNELS 6 Xposition Yposition Zposition Zrotation Xrotation Yrotation
                      JOINT lPinky2_End
                      {
                        OFFSET 0.805498 -1.58501 0.795499
                        CHANNELS 6 Xposition Yposition Zposition Zrotation Xrotation Yrotation
                        End Site
                        {
                          OFFSET 0.00809703 -0.0157944 0.00799848
                        }
                      }
                    }
                  }
                }
              }
            }
          }
        }
        JOINT rCollar
        {
          OFFSET -1.7069 20.075 5.0056
          CHANNELS 6 Xposition Yposition Zposition Zrotation Xrotation Yrotation
          JOINT rShldr
          {
            OFFSET -13.6458 -0.0470107 -4.849
            CHANNELS 6 Xposition Yposition Zposition Zrotation Xrotation Yrotation
            JOINT rForeArm
            {
              OFFSET -28.3255 -0.975895 2.2888
              CHANNELS 6 Xposition Yposition Zposition Zrotation Xrotation Yrotation
              JOINT rHand
              {
                OFFSET -22.1583 -0.530007 10.8316
                CHANNELS 6 Xposition Yposition Zposition Zrotation Xrotation Yrotation
                JOINT rThumb1
                {
                  OFFSET -0.785997 0.112005 2.5817
                  CHANNELS 6 Xposition Yposition Zposition Zrotation Xrotation Yrotation
                  JOINT rThumb2
                  {
                    OFFSET -0.360106 -0.877994 4.2331
                    CHANNELS 6 Xposition Yposition Zposition Zrotation Xrotation Yrotation
                    JOINT rThumb2_End
                    {
                      OFFSET -1.8127 -1.216 2.2227
                      CHANNELS 6 Xposition Yposition Zposition Zrotation Xrotation Yrotation
                      End Site
                      {
                        OFFSET -0.0180972 -0.0121973 0.0222005
                      }
                    }
                  }
                }
                JOINT rCarpal1
                {
                  OFFSET -0.9571 1.114 1.7695
                  CHANNELS 6 Xposition Yposition Zposition Zrotation Xrotation Yrotation
                  JOINT rIndex1
                  {
                    OFFSET -4.1246 0.487011 4.1451
                    CHANNELS 6 Xposition Yposition Zposition Zrotation Xrotation Yrotation
                    JOINT rIndex2
                    {
                      OFFSET -3.4052 -1.45401 2.7682
                      CHANNELS 6 Xposition Yposition Zposition Zrotation Xrotation Yrotation
                      JOINT rIndex2_End
                      {
                        OFFSET -1.4531 -1.795 1.2713
                        CHANNELS 6 Xposition Yposition Zposition Zrotation Xrotation Yrotation
                        End Site
                        {
                          OFFSET -0.0145077 -0.0180048 0.0127017
                        }
                      }
                    }
                  }
                  JOINT rMid1
                  {
                    OFFSET -5.6954 0.210002 2.1184
                    CHANNELS 6 Xposition Yposition Zposition Zrotation Xrotation Yrotation
                    JOINT rMid2
                    {
                      OFFSET -3.9766 -1.54 2.3863
                      CHANNELS 6 Xposition Yposition Zposition Zrotation Xrotation Yrotation
                      JOINT rMid2_End
                      {
                        OFFSET -1.4042 -1.926 1.125
                        CHANNELS 6 Xposition Yposition Zposition Zrotation Xrotation Yrotation
                        End Site
                        {
                          OFFSET -0.0139948 -0.0192916 0.0112994
                        }
                      }
                    }
                  }
                }
                JOINT rCarpal2
                {
                  OFFSET -2.0956 0.66 -0.3894
                  CHANNELS 6 Xposition Yposition Zposition Zrotation Xrotation Yrotation
                  JOINT rRing1
                  {
                    OFFSET -5.03951 -0.0899879 2.4971
                    CHANNELS 6 Xposition Yposition Zposition Zrotation Xrotation Yrotation
                    JOINT rRing2
                    {
                      OFFSET -3.7921 -1.55201 1.4806
                      CHANNELS 6 Xposition Yposition Zposition Zrotation Xrotation Yrotation
                      JOINT rRing2_End
                      {
                        OFFSET -1.4655 -1.808 0.960901
                        CHANNELS 6 Xposition Yposition Zposition Zrotation Xrotation Yrotation
                        End Site
                        {
                          OFFSET -0.0146934 -0.0180999 0.00959832
                        }
                      }
                    }
                  }
                  JOINT rPinky1
                  {
                    OFFSET -4.91411 -1.26899 0.359202
                    CHANNELS 6 Xposition Yposition Zposition Zrotation Xrotation Yrotation
                    JOINT rPinky2
                    {
                      OFFSET -3.14769 -1.68501 0.846199
                      CHANNELS 6 Xposition Yposition Zposition Zrotation Xrotation Yrotation
                      JOINT rPinky2_End
                      {
                        OFFSET -0.805498 -1.585 0.7955
                        CHANNELS 6 Xposition Yposition Zposition Zrotation Xrotation Yrotation
                        End Site
                        {
                          OFFSET -0.00810035 -0.0158035 0.00800029
                        }
                      }
                    }
                  }
                }
              }
            }
          }
        }
      }
    }
  }
  JOINT lThigh
  {
    OFFSET 8.367 -8.2066 0.5982
    CHANNELS 6 Xposition Yposition Zposition Zrotation Xrotation Yrotation
    JOINT lShin
    {
      OFFSET 2.1923 -43.463 -0.4932
      CHANNELS 6 Xposition Yposition Zposition Zrotation Xrotation Yrotation
      JOINT lFoot
      {
        OFFSET 0.733301 -45.8593 -2.6451
        CHANNELS 6 Xposition Yposition Zposition Zrotation Xrotation Yrotation
        End Site
        {
          OFFSET 2.6618 -4.2699 12.3931
        }
      }
    }
  }
  JOINT rThigh
  {
    OFFSET -8.367 -8.2066 0.5982
    CHANNELS 6 Xposition Yposition Zposition Zrotation Xrotation Yrotation
    JOINT rShin
    {
      OFFSET -2.1923 -43.463 -0.4931
      CHANNELS 6 Xposition Yposition Zposition Zrotation Xrotation Yrotation
      JOINT rFoot
      {
        OFFSET -0.733299 -45.8593 -2.6451
        CHANNELS 6 Xposition Yposition Zposition Zrotation Xrotation Yrotation
        End Site
        {
          OFFSET -2.6618 -4.2699 12.3931
        }
      }
    }
  }
}
MOTION
Frames:	4
Frame Time:	0.0333333
16.8684 32.5871 -48.0706 12.7997 10.1781 -55.1364 9.3898e-007 -1.186 -1.5018 -0.152901 -2.78443 1.52629 1.48496e-007 9.964 0.213401 -0.231802 -5.57194 3.05057 -9.09736e-007 13.134 -3.2573 -0.231804 -5.57194 3.05057 2.40376e-007 20.686 -1.6905 0.173766 0.714193 -4.39517 1.17732e-007 7.238 -0.1237 6.57719 -0.317215 -2.2509 1.7069 20.075 5.0056 2.95989 -2.02066 -17.8095 13.6458 -0.047015 -4.84901 -53.7598 -1.57808 -47.601 28.3255 -0.975887 2.2888 -11.6336 -14.7102 -44.9664 22.1583 -0.529988 10.8316 -0.276373 -23.4132 9.31264 0.786003 0.111996 2.5817 29.0017 36.8211 -34.7961 0.360098 -0.877998 4.2331 -6.336 -0.117437 -11.5723 1.8127 -1.21601 2.2227 6.48325 1.48358 12.057 0.9571 1.114 1.7695 3.18055e-015 7.95139e-016 -3.97569e-016 4.12461 0.486992 4.1451 -4.88655 4.54348 12.6105 3.4052 -1.454 2.7682 -36.3632 10.0329 17.8991 1.4531 -1.79499 1.2713 -37.4303 10.1388 18.4807 5.6954 0.209987 2.11841 -1.57803 -0.580164 1.60999 3.9766 -1.53999 2.3863 -43.8279 12.1759 22.7528 1.4042 -1.926 1.125 -9.02927 4.06775 4.02096 2.0956 0.66 -0.3894 3.18055e-015 7.95139e-016 -3.97569e-016 5.0395 -0.0900134 2.4971 -8.43331 -1.94472 5.79456 3.7921 -1.55199 1.4806 -14.2667 6.48239 7.41412 1.4655 -1.808 0.960899 -15.7281 7.01794 8.23358 4.9141 -1.269 0.3591 10.4043 -12.5919 2.33078 3.1477 -1.685 0.846202 -18.2171 8.51691 9.60784 0.805498 -1.58501 0.795502 -8.80313 4.5926 4.39702 -1.7069 20.075 5.0056 -6.93188 -1.06537 30.815 -13.6458 -0.0470099 -4.849 36.9625 -29.4718 55.5586 -28.3255 -0.975886 2.2888 20.4426 1.36349 35.927 -22.1583 -0.530005 10.8316 -36.4153 -49.4765 -33.0426 -0.786 0.112004 2.5817 -29.9217 33.5002 36.3093 -0.360105 -0.877995 4.2331 3.27636 -2.39824 9.40456 -1.8127 -1.216 2.2227 -4.44361 5.02816 -15.268 -0.9571 1.114 1.7695 -1.27222e-014 3.18055e-015 7.95139e-016 -4.12461 0.487011 4.1451 13.1808 6.35747 -12.137 -3.4052 -1.45401 2.7682 44.351 10.8048 -10.7982 -1.4531 -1.795 1.2713 45.4781 10.9508 -11.1601 -5.6954 0.210002 2.1184 7.06608 1.28915 -2.1555 -3.9766 -1.54 2.3863 52.3089 13.53 -14.1043 -1.4042 -1.926 1.125 15.1721 5.32229 -2.78764 -2.0956 0.66 -0.3894 -1.27222e-014 3.18055e-015 7.95139e-016 -5.03951 -0.0899858 2.4971 14.4741 -0.344696 -5.3151 -3.7921 -1.55201 1.4806 20.9794 7.69273 -5.18755 -1.4655 -1.808 0.960902 22.5759 8.18061 -5.68282 -4.91411 -1.26899 0.359202 -6.22003 -8.66656 -6.14765 -3.1477 -1.68501 0.846196 25.2633 9.75598 -6.40171 -0.8055 -1.585 0.795499 14.9453 6.18833 -3.30339 8.367 -8.20659 0.598202 57.7087 -35.3235 38.4988 2.1923 -43.463 -0.493193 -179.757 35.571 -175.607 0.733308 -45.8593 -2.6451 10.3913 18.5879 -40.927 -8.367 -8.2066 0.598199 -53.9827 -29.2412 -19.0728 -2.19236 -43.4631 -0.493151 163.886 33.5778 -154.4 -0.733288 -45.8593 -2.64509 -4.19633 26.4723 42.7249 
16.9141 32.5119 -48.0127 12.7369 10.122 -54.9692 1.90883e-006 -1.186 -1.5018 -0.193072 -2.66973 1.45315 9.13325e-007 9.964 0.213401 -0.318729 -5.3435 2.90201 -4.4819e-007 13.134 -3.2573 -0.318731 -5.3435 2.90203 -2.6935e-007 20.686 -1.6905 -0.235235 0.581625 -4.10952 -6.71524e-007 7.23804 -0.123701 6.99928 -0.542259 -1.92774 1.7069 20.075 5.0056 2.84291 -2.02825 -17.5422 13.6458 -0.0470086 -4.849 -53.3776 -1.80651 -47.6191 28.3255 -0.975894 2.2888 -12.4539 -14.3566 -46.3358 22.1583 -0.529986 10.8316 0.594886 -23.0886 10.2106 0.786003 0.111996 2.58171 28.9859 36.8155 -34.7731 0.360097 -0.878 4.2331 -6.33438 -0.117586 -11.5694 1.8127 -1.21601 2.2227 6.48055 1.48266 12.0519 0.9571 1.114 1.7695 3.18055e-015 -7.95139e-016 -2.38542e-015 4.1246 0.486992 4.1451 -4.88573 4.54313 12.6101 3.4052 -1.454 2.7682 -36.3601 10.0326 17.8974 1.4531 -1.79499 1.2713 -37.4245 10.1382 18.4774 5.6954 0.209987 2.1184 -1.57731 -0.577977 1.60812 3.9766 -1.53999 2.3863 -43.8241 12.1757 22.7507 1.4042 -1.926 1.125 -9.02652 4.06663 4.01965 2.0956 0.66 -0.3894 3.18055e-015 -7.95139e-016 -2.38542e-015 5.0395 -0.0900129 2.4971 -8.432 -1.94124 5.79177 3.7921 -1.55199 1.4806 -14.2648 6.48165 7.41304 1.4655 -1.808 0.960899 -15.7281 7.01795 8.23357 4.9141 -1.269 0.359103 10.3945 -12.5876 2.3322 3.1477 -1.685 0.8462 -18.2129 8.51539 9.6054 0.805499 -1.58501 0.795496 -8.80265 4.59472 4.39753 -1.7069 20.075 5.0056 -7.21269 -1.11509 30.605 -13.6458 -0.0470111 -4.849 36.8777 -29.3706 55.3382 -28.3255 -0.975892 2.2888 19.8685 0.99009 37.5923 -22.1583 -0.530007 10.8316 -37.0115 -49.2227 -34.3362 -0.786001 0.112005 2.5817 -29.9019 33.4935 36.2832 -0.360108 -0.877994 4.2331 3.27241 -2.3958 9.39374 -1.8127 -1.216 2.2227 -4.43957 5.02216 -15.2518 -0.9571 1.114 1.7695 -6.36111e-015 0 7.95139e-016 -4.12461 0.487011 4.1451 13.1737 6.35323 -12.1269 -3.4052 -1.45401 2.7682 44.3331 10.8025 -10.7925 -1.4531 -1.795 1.2713 45.4596 10.9485 -11.1541 -5.6954 0.21 2.1184 7.06606 1.28915 -2.15551 -3.9766 -1.54 2.3863 52.287 13.5275 -14.0964 -1.4042 -1.926 1.125 15.159 5.31811 -2.78467 -2.0956 0.66 -0.3894 -6.36111e-015 0 7.95139e-016 -5.03951 -0.0899888 2.49711 14.4668 -0.339564 -5.31174 -3.7921 -1.552 1.4806 20.9722 7.69047 -5.18534 -1.4655 -1.808 0.960897 22.5602 8.17591 -5.67789 -4.91411 -1.26899 0.359201 -6.21008 -8.65639 -6.14326 -3.14769 -1.68501 0.846197 25.245 9.75022 -6.3957 -0.8055 -1.585 0.795501 14.9322 6.18343 -3.29987 8.36701 -8.20661 0.598201 57.8064 -35.4616 38.2999 2.1923 -43.463 -0.493196 -179.752 35.4986 -175.65 0.733301 -45.8593 -2.64509 10.4858 18.5898 -41.2152 -8.36701 -8.20661 0.598202 -54.2633 -29.148 -19.0162 -2.19218 -43.463 -0.492987 163.863 33.6545 -154.383 -0.733262 -45.8593 -2.64507 -4.3777 26.6943 43.1587 
16.9424 32.462 -47.9355 12.6878 10.0483 -54.8021 2.27412e-006 -1.186 -1.5018 -0.233681 -2.54416 1.34718 -5.50647e-007 9.964 0.213399 -0.407961 -5.09307 2.68789 4.81511e-007 13.134 -3.2573 -0.407959 -5.09307 2.68789 2.09597e-007 20.686 -1.6905 -0.650402 0.375069 -3.69268 -1.65631e-007 7.23804 -0.123702 7.27378 -0.772165 -1.57622 1.7069 20.075 5.0056 2.64937 -2.03404 -17.2914 13.6458 -0.0470099 -4.849 -52.948 -2.16365 -47.3945 28.3255 -0.975898 2.28879 -13.4279 -14.0063 -47.974 22.1583 -0.529991 10.8316 1.26369 -22.5951 11.0885 0.786003 0.111997 2.58171 28.9701 36.8099 -34.7502 0.360098 -0.877999 4.2331 -6.33277 -0.117692 -11.5664 1.8127 -1.21601 2.2227 6.47786 1.48173 12.0468 0.9571 1.114 1.7695 -0 0 7.95139e-016 4.1246 0.486993 4.1451 -4.88494 4.5428 12.6097 3.4052 -1.454 2.7682 -36.3569 10.0322 17.8957 1.4531 -1.79499 1.2713 -37.4186 10.1377 18.4743 5.6954 0.209989 2.1184 -1.57661 -0.575796 1.60626 3.9766 -1.53999 2.3863 -43.8203 12.1755 22.7485 1.4042 -1.926 1.125 -9.02378 4.06551 4.01836 2.0956 0.66 -0.3894 -0 0 7.95139e-016 5.0395 -0.0900121 2.4971 -8.4307 -1.93777 5.789 3.7921 -1.55199 1.4806 -14.2628 6.48091 7.41192 1.4655 -1.808 0.960896 -15.7281 7.01793 8.23358 4.9141 -1.269 0.359098 10.3592 -12.5644 2.33332 3.1477 -1.685 0.846204 -18.2087 8.51386 9.60298 0.805498 -1.58501 0.795499 -8.80218 4.59683 4.39805 -1.7069 20.075 5.0056 -7.51397 -1.16303 30.3799 -13.6458 -0.0470138 -4.84901 36.896 -29.1485 55.2007 -28.3255 -0.975885 2.2888 19.4457 0.428772 39.348 -22.1583 -0.530006 10.8316 -37.486 -48.726 -35.3518 -0.786001 0.112005 2.5817 -29.8248 33.4672 36.1825 -0.360105 -0.877996 4.2331 3.26846 -2.39338 9.38293 -1.81269 -1.216 2.2227 -4.43554 5.01617 -15.2356 -0.9571 1.114 1.7695 6.36111e-015 0 7.95139e-016 -4.12461 0.487011 4.1451 13.1665 6.34903 -12.1168 -3.4052 -1.45401 2.7682 44.2801 10.7954 -10.7756 -1.4531 -1.795 1.2713 45.3879 10.9394 -11.131 -5.6954 0.21 2.1184 7.06607 1.28914 -2.1555 -3.9766 -1.54 2.3863 52.2223 13.5203 -14.0732 -1.4042 -1.926 1.125 15.1459 5.31391 -2.78169 -2.0956 0.66 -0.3894 6.36111e-015 0 7.95139e-016 -5.03951 -0.0899874 2.4971 14.4595 -0.334408 -5.30837 -3.7921 -1.55201 1.4806 20.9443 7.68182 -5.17676 -1.4655 -1.808 0.960899 22.5445 8.1712 -5.67295 -4.91411 -1.26899 0.359203 -6.20013 -8.64627 -6.13888 -3.1477 -1.68501 0.846198 25.2267 9.7445 -6.38972 -0.8055 -1.585 0.7955 14.9192 6.17853 -3.29635 8.367 -8.2066 0.598205 57.839 -35.53 38.0892 2.19229 -43.463 -0.493198 -179.749 35.4918 -175.691 0.733309 -45.8593 -2.64509 10.6049 18.6052 -41.4178 -8.367 -8.2066 0.598194 -54.6055 -29.0685 -18.9862 -2.19219 -43.4631 -0.493026 163.838 33.7477 -154.388 -0.733294 -45.8593 -2.6451 -4.65045 26.9485 43.6005 
16.9704 32.4479 -47.839 12.6399 9.96683 -54.6166 -6.75259e-007 -1.186 -1.5018 -0.293104 -2.41139 1.24799 3.56947e-007 9.964 0.213401 -0.534232 -4.82856 2.48695 -1.7213e-006 13.134 -3.2573 -0.534231 -4.82856 2.48693 -6.31565e-007 20.686 -1.6905 -1.06925 0.423668 -3.30341 2.80875e-007 7.23801 -0.1237 7.68946 -1.03705 -1.10096 1.7069 20.075 5.0056 2.29373 -2.03947 -17.0864 13.6458 -0.0470165 -4.84901 -52.4203 -2.54489 -47.2469 28.3255 -0.975902 2.2888 -14.3226 -13.5284 -49.4375 22.1583 -0.529982 10.8316 1.61024 -22.0947 11.8178 0.786004 0.111998 2.5817 28.9199 36.7912 -34.6787 0.360097 -0.878002 4.2331 -6.32594 -0.118271 -11.554 1.8127 -1.21601 2.2227 6.47516 1.4808 12.0417 0.9571 1.114 1.7695 -3.18055e-015 -7.95139e-016 -1.19271e-015 4.12461 0.486992 4.1451 -4.88414 4.54247 12.6093 3.4052 -1.454 2.7682 -36.3538 10.0319 17.894 1.4531 -1.79499 1.2713 -37.4128 10.1371 18.4711 5.6954 0.209987 2.1184 -1.57591 -0.5736 1.60439 3.9766 -1.53999 2.3863 -43.8165 12.1752 22.7463 1.4042 -1.926 1.125 -9.02104 4.06439 4.01706 2.0956 0.66 -0.3894 -3.18055e-015 -7.95139e-016 -1.19271e-015 5.0395 -0.0900129 2.4971 -8.42939 -1.9343 5.78623 3.7921 -1.55199 1.4806 -14.2609 6.48017 7.41085 1.4655 -1.808 0.960898 -15.7251 7.0169 8.23193 4.9141 -1.269 0.359101 10.3238 -12.5411 2.33444 3.1477 -1.685 0.8462 -18.2045 8.51233 9.60054 0.805498 -1.58501 0.795501 -8.80171 4.59898 4.39857 -1.7069 20.075 5.0056 -7.83814 -1.23107 30.0745 -13.6458 -0.0470127 -4.84901 36.8197 -28.9121 54.9356 -28.3255 -0.975892 2.28881 19.1915 -0.240884 41.2008 -22.1583 -0.53001 10.8316 -38.0653 -48.188 -36.3311 -0.786001 0.112004 2.5817 -29.7479 33.4408 36.0818 -0.360105 -0.877995 4.2331 3.25699 -2.38636 9.35164 -1.8127 -1.216 2.2227 -4.43151 5.01017 -15.2194 -0.9571 1.114 1.7695 -6.36111e-015 1.59028e-015 7.95139e-016 -4.12461 0.487012 4.1451 13.1489 6.33877 -12.0922 -3.4052 -1.45401 2.7682 44.1937 10.784 -10.748 -1.4531 -1.795 1.2713 45.3162 10.9303 -11.108 -5.69541 0.210003 2.1184 7.06605 1.28914 -2.15551 -3.9766 -1.54 2.3863 52.1169 13.5085 -14.0353 -1.4042 -1.926 1.125 15.1329 5.30973 -2.77872 -2.0956 0.66 -0.3894 -6.36111e-015 1.59028e-015 7.95139e-016 -5.03951 -0.0899858 2.4971 14.4407 -0.329749 -5.29693 -3.7921 -1.55201 1.4806 20.9163 7.67316 -5.1682 -1.4655 -1.808 0.960901 22.5063 8.15972 -5.66094 -4.91411 -1.26899 0.359202 -6.17505 -8.62221 -6.12668 -3.1477 -1.68501 0.846198 25.1822 9.73054 -6.37516 -0.805499 -1.585 0.795502 14.9062 6.17363 -3.29282 8.367 -8.2066 0.5982 57.8102 -35.5799 37.877 2.1923 -43.463 -0.493194 -179.748 35.5244 -175.732 0.733296 -45.8593 -2.64509 10.7511 18.5675 -41.5789 -8.367 -8.2066 0.5982 -54.9852 -29.0259 -18.9786 -2.19233 -43.463 -0.493131 163.82 33.8394 -154.419 -0.73327 -45.8593 -2.64511 -4.90414 27.2655 43.9705 
